<svg xmlns="http://www.w3.org/2000/svg" viewBox="1599 311 29 29"><defs><style>.a{fill:#f8ba44;}.b{fill:#fff;}</style></defs><g transform="translate(7 -50)"><g transform="translate(-175)"><circle class="a" cx="14.5" cy="14.5" r="14.5" transform="translate(1767 361)"/></g><g transform="translate(1568 336.017)"><path class="b" d="M306.21,34.539l-2.252-2.248a1,1,0,0,0-1.413,0l-1.634,1.631,3.664,3.658,1.633-1.631A1,1,0,0,0,306.21,34.539Z" transform="translate(-260.518)"/><path class="b" d="M32.589,120.7s4.132-1.068,4.174-1.127c.021-.018.042-.036.063-.056l6.747-6.735-3.664-3.658-6.747,6.735c-.022.022-.042.044-.061.067-.052.035-1.1,4.186-1.1,4.186A.589.589,0,0,0,32.589,120.7Zm1.392-4.25.61.61c.3-.053.757-.13,1.228-.208-.07.441-.146.918-.2,1.235l.612.612c-.378.11-1.3.357-2.344.632l-.525-.524C33.619,117.814,33.869,116.852,33.982,116.453Z" transform="translate(0 -74.719)"/></g></g></svg>