<svg xmlns="http://www.w3.org/2000/svg" viewBox="1821 311 29 29"><defs><style>.a{fill:#ff4e4e;}.b{fill:#fff;}</style></defs><g transform="translate(54 -50)"><circle class="a" cx="14.5" cy="14.5" r="14.5" transform="translate(1767 361)"/><path class="b" d="M40.732,38.157,44,34.89a1.079,1.079,0,0,0,0-1.526l-1.049-1.049a1.079,1.079,0,0,0-1.526,0l-3.266,3.266-3.266-3.266a1.079,1.079,0,0,0-1.526,0l-1.049,1.049a1.079,1.079,0,0,0,0,1.526l3.266,3.266-3.266,3.266a1.079,1.079,0,0,0,0,1.526L33.365,44a1.079,1.079,0,0,0,1.526,0l3.266-3.266L41.423,44a1.079,1.079,0,0,0,1.526,0L44,42.949a1.079,1.079,0,0,0,0-1.526Z" transform="translate(1743 337)"/></g></svg>